<svg width="204" height="205" viewBox="0 0 204 205" fill="none" xmlns="http://www.w3.org/2000/svg">
<path d="M203.54 130.21C197.08 151.3 184.133 169.815 166.54 183.12C151.095 194.745 132.716 201.834 113.465 203.594C94.2139 205.353 74.8538 201.712 57.5573 193.079C40.2609 184.446 25.7128 171.164 15.5459 154.722C5.379 138.281 -0.00420245 119.331 0.000479118 100C-0.0682857 77.4366 7.26674 55.4737 20.8805 37.48C34.1859 19.8879 52.7008 6.94043 73.7905 0.479982C75.1805 0.0519844 76.6608 0.0110005 78.0723 0.361438C79.4839 0.711875 80.7732 1.44048 81.8016 2.46888C82.83 3.49728 83.5586 4.78658 83.909 6.19811C84.2595 7.60964 84.2185 9.09 83.7905 10.48C79.1789 25.7343 78.7922 41.9539 82.6717 57.4106C86.5512 72.8673 94.5514 86.982 105.82 98.2505C117.089 109.519 131.203 117.519 146.66 121.399C162.117 125.278 178.336 124.892 193.59 120.28C194.98 119.852 196.461 119.811 197.872 120.161C199.284 120.512 200.573 121.24 201.602 122.269C202.63 123.297 203.359 124.587 203.709 125.998C204.059 127.41 204.018 128.89 203.59 130.28L203.54 130.21Z" fill="black"/>
</svg>
