<svg width="48" height="48" viewBox="0 0 48 48" fill="none" xmlns="http://www.w3.org/2000/svg">
<path d="M10 30C12.2091 30 14 28.2091 14 26C14 23.7909 12.2091 22 10 22C7.79086 22 6 23.7909 6 26C6 28.2091 7.79086 30 10 30Z" fill="#FFA726"/>
<path d="M38 30C40.2091 30 42 28.2091 42 26C42 23.7909 40.2091 22 38 22C35.7909 22 34 23.7909 34 26C34 28.2091 35.7909 30 38 30Z" fill="#FFA726"/>
<path d="M39 19C39 6.30002 9 10.7 9 19V29C9 37.3 15.7 44 24 44C32.3 44 39 37.3 39 29V19Z" fill="#FFB74D"/>
<path d="M24 2C14.6 2 7 9.6 7 19V22.4L9 24V21L30 11.2L39 21V24L41 22.4V19C41 11 35.3 2 24 2Z" fill="#FF5722"/>
<path d="M31 28C32.1046 28 33 27.1046 33 26C33 24.8954 32.1046 24 31 24C29.8954 24 29 24.8954 29 26C29 27.1046 29.8954 28 31 28Z" fill="#784719"/>
<path d="M17 28C18.1046 28 19 27.1046 19 26C19 24.8954 18.1046 24 17 24C15.8954 24 15 24.8954 15 26C15 27.1046 15.8954 28 17 28Z" fill="#784719"/>
<path d="M43 24C42.4 24 42 24.4 42 25V18C42 9.2 34.8 2 26 2H19C18.4 2 18 2.4 18 3C18 3.6 18.4 4 19 4H26C33.7 4 40 10.3 40 18V28C40 28.6 40.4 29 41 29C41.6 29 42 28.6 42 28V30C42 33.9 38.9 37 35 37H24C23.4 37 23 37.4 23 38C23 38.6 23.4 39 24 39H35C40 39 44 35 44 30V25C44 24.4 43.6 24 43 24Z" fill="#757575"/>
<path d="M43 22H42C40.9 22 40 22.9 40 24V28C40 29.1 40.9 30 42 30H43C44.1 30 45 29.1 45 28V24C45 22.9 44.1 22 43 22Z" fill="#37474F"/>
<path d="M24 40C25.1046 40 26 39.1046 26 38C26 36.8954 25.1046 36 24 36C22.8954 36 22 36.8954 22 38C22 39.1046 22.8954 40 24 40Z" fill="#37474F"/>
</svg>
