<svg width="14" height="15" viewBox="0 0 14 15" fill="none" xmlns="http://www.w3.org/2000/svg">
  <!-- Перше зображення -->
  <path fill-rule="evenodd" clip-rule="evenodd" d="M6.59087 0.807088C6.83161 0.619846 7.16872 0.619846 7.40946 0.807088L13.4095 5.47375C13.5718 5.60006 13.6668 5.79426 13.6668 5.99999V13.3333C13.6668 13.8638 13.4561 14.3725 13.081 14.7475C12.706 15.1226 12.1973 15.3333 11.6668 15.3333H2.3335C1.80306 15.3333 1.29436 15.1226 0.919282 14.7475C0.54421 14.3725 0.333496 13.8638 0.333496 13.3333V5.99999C0.333496 5.79426 0.428478 5.60006 0.590869 5.47375L6.59087 0.807088ZM1.66683 6.32605V13.3333C1.66683 13.5101 1.73707 13.6797 1.86209 13.8047C1.98712 13.9298 2.15669 14 2.3335 14H11.6668C11.8436 14 12.0132 13.9298 12.1382 13.8047C12.2633 13.6797 12.3335 13.5101 12.3335 13.3333V6.32605L7.00016 2.1779L1.66683 6.32605Z" fill="#313237"/>

  <!-- Друге зображення зі зсувом -->
  <path fill-rule="evenodd" clip-rule="evenodd" d="M0.333496 1.00001C0.333496 0.63182 0.631973 0.333344 1.00016 0.333344H5.00016C5.36835 0.333344 5.66683 0.63182 5.66683 1.00001V7.66668C5.66683 8.03487 5.36835 8.33334 5.00016 8.33334C4.63197 8.33334 4.3335 8.03487 4.3335 7.66668V1.66668H1.66683V7.66668C1.66683 8.03487 1.36835 8.33334 1.00016 8.33334C0.631973 8.33334 0.333496 8.03487 0.333496 7.66668V1.00001Z" fill="#313237" transform="translate(4, 6)"/>
</svg>
