<svg width="240" height="240" viewBox="0 0 240 240" fill="none" xmlns="http://www.w3.org/2000/svg">
<path d="M112 32V8C112 5.87827 112.843 3.84344 114.343 2.34315C115.843 0.842854 117.878 0 120 0C122.122 0 124.157 0.842854 125.657 2.34315C127.157 3.84344 128 5.87827 128 8V32C128 34.1217 127.157 36.1566 125.657 37.6569C124.157 39.1571 122.122 40 120 40C117.878 40 115.843 39.1571 114.343 37.6569C112.843 36.1566 112 34.1217 112 32ZM184 120C184 132.658 180.246 145.032 173.214 155.556C166.182 166.081 156.186 174.284 144.492 179.128C132.797 183.972 119.929 185.24 107.514 182.77C95.0994 180.301 83.6957 174.205 74.7452 165.255C65.7946 156.304 59.6992 144.901 57.2297 132.486C54.7603 120.071 56.0277 107.203 60.8717 95.5083C65.7157 83.8138 73.9188 73.8184 84.4435 66.7859C94.9683 59.7535 107.342 56 120 56C136.968 56.0185 153.236 62.7673 165.234 74.7656C177.233 86.7639 183.981 103.032 184 120ZM168 120C168 110.506 165.185 101.226 159.911 93.3326C154.636 85.4391 147.14 79.2868 138.369 75.6538C129.598 72.0208 119.947 71.0702 110.636 72.9223C101.325 74.7744 92.7718 79.346 86.0589 86.0589C79.346 92.7718 74.7744 101.325 72.9223 110.636C71.0702 119.947 72.0208 129.598 75.6538 138.369C79.2868 147.14 85.4391 154.636 93.3326 159.911C101.226 165.185 110.506 168 120 168C132.726 167.987 144.928 162.925 153.927 153.927C162.925 144.928 167.987 132.726 168 120ZM50.34 61.66C51.8411 63.1611 53.8771 64.0044 56 64.0044C58.1229 64.0044 60.1589 63.1611 61.66 61.66C63.1611 60.1589 64.0044 58.1229 64.0044 56C64.0044 53.8771 63.1611 51.8411 61.66 50.34L45.66 34.34C44.1589 32.8389 42.1229 31.9956 40 31.9956C37.8771 31.9956 35.8411 32.8389 34.34 34.34C32.8389 35.8411 31.9956 37.8771 31.9956 40C31.9956 42.1229 32.8389 44.1589 34.34 45.66L50.34 61.66ZM50.34 178.34L34.34 194.34C32.8389 195.841 31.9956 197.877 31.9956 200C31.9956 202.123 32.8389 204.159 34.34 205.66C35.8411 207.161 37.8771 208.004 40 208.004C42.1229 208.004 44.1589 207.161 45.66 205.66L61.66 189.66C62.4033 188.917 62.9929 188.034 63.3951 187.063C63.7974 186.092 64.0044 185.051 64.0044 184C64.0044 182.949 63.7974 181.908 63.3951 180.937C62.9929 179.966 62.4033 179.083 61.66 178.34C60.9167 177.597 60.0343 177.007 59.0632 176.605C58.092 176.203 57.0512 175.996 56 175.996C54.9488 175.996 53.908 176.203 52.9368 176.605C51.9657 177.007 51.0833 177.597 50.34 178.34ZM184 64C185.051 64.0008 186.092 63.7946 187.063 63.3931C188.034 62.9916 188.917 62.4027 189.66 61.66L205.66 45.66C207.161 44.1589 208.004 42.1229 208.004 40C208.004 37.8771 207.161 35.8411 205.66 34.34C204.159 32.8389 202.123 31.9956 200 31.9956C197.877 31.9956 195.841 32.8389 194.34 34.34L178.34 50.34C177.22 51.4588 176.457 52.8849 176.148 54.4375C175.839 55.9902 175.997 57.5997 176.603 59.0623C177.209 60.5249 178.235 61.7748 179.552 62.6538C180.869 63.5327 182.417 64.0012 184 64ZM189.66 178.34C188.159 176.839 186.123 175.996 184 175.996C181.877 175.996 179.841 176.839 178.34 178.34C176.839 179.841 175.996 181.877 175.996 184C175.996 186.123 176.839 188.159 178.34 189.66L194.34 205.66C195.083 206.403 195.966 206.993 196.937 207.395C197.908 207.797 198.949 208.004 200 208.004C201.051 208.004 202.092 207.797 203.063 207.395C204.034 206.993 204.917 206.403 205.66 205.66C206.403 204.917 206.993 204.034 207.395 203.063C207.797 202.092 208.004 201.051 208.004 200C208.004 198.949 207.797 197.908 207.395 196.937C206.993 195.966 206.403 195.083 205.66 194.34L189.66 178.34ZM40 120C40 117.878 39.1571 115.843 37.6569 114.343C36.1566 112.843 34.1217 112 32 112H8C5.87827 112 3.84344 112.843 2.34315 114.343C0.842854 115.843 0 117.878 0 120C0 122.122 0.842854 124.157 2.34315 125.657C3.84344 127.157 5.87827 128 8 128H32C34.1217 128 36.1566 127.157 37.6569 125.657C39.1571 124.157 40 122.122 40 120ZM120 200C117.878 200 115.843 200.843 114.343 202.343C112.843 203.843 112 205.878 112 208V232C112 234.122 112.843 236.157 114.343 237.657C115.843 239.157 117.878 240 120 240C122.122 240 124.157 239.157 125.657 237.657C127.157 236.157 128 234.122 128 232V208C128 205.878 127.157 203.843 125.657 202.343C124.157 200.843 122.122 200 120 200ZM232 112H208C205.878 112 203.843 112.843 202.343 114.343C200.843 115.843 200 117.878 200 120C200 122.122 200.843 124.157 202.343 125.657C203.843 127.157 205.878 128 208 128H232C234.122 128 236.157 127.157 237.657 125.657C239.157 124.157 240 122.122 240 120C240 117.878 239.157 115.843 237.657 114.343C236.157 112.843 234.122 112 232 112Z" fill="white"/>
</svg>
